<?xml version="1.0" encoding="utf-8"?>
<!-- Generator: Adobe Illustrator 22.1.0, SVG Export Plug-In . SVG Version: 6.00 Build 0)  -->
<svg version="1.1" id="Layer_1" xmlns="http://www.w3.org/2000/svg" xmlns:xlink="http://www.w3.org/1999/xlink" x="0px" y="0px"
	 viewBox="0 0 164 39" style="enable-background:new 0 0 164 39;" xml:space="preserve">
<style type="text/css">
	.st0{fill:#0B9BAC;}
	.st1{fill:url(#SVGID_1_);}
	.st2{fill:url(#SVGID_2_);}
	.st3{fill:url(#SVGID_3_);}
	.st4{fill:url(#SVGID_4_);}
	.st5{fill:url(#SVGID_5_);}
	.st6{fill:url(#SVGID_6_);}
	.st7{fill:#FFFFFF;}
</style>
<g>
	<g>
		<polygon class="st0" points="19.6,17.2 19.6,17.2 19.6,17.2 19.6,17.2 19.6,17.2 		"/>
		<polygon class="st0" points="19.6,17.2 19.6,17.2 19.6,17.2 		"/>
		<polygon class="st0" points="19.6,17.2 19.6,17.2 19.6,17.2 		"/>
		<polygon class="st0" points="19.6,17.2 19.6,17.2 19.6,17.2 		"/>
		<rect x="19.6" y="17.2" transform="matrix(0.8412 -0.5408 0.5408 0.8412 -6.1746 13.3507)" class="st0" width="0" height="0"/>
		<polygon class="st0" points="19.6,17.2 19.6,17.2 19.6,17.2 		"/>
		<linearGradient id="SVGID_1_" gradientUnits="userSpaceOnUse" x1="29.3895" y1="27.3819" x2="12.0028" y2="24.2426">
			<stop  offset="2.776170e-02" style="stop-color:#674B9B"/>
			<stop  offset="0.1343" style="stop-color:#6F4A9A"/>
			<stop  offset="0.3011" style="stop-color:#854898"/>
			<stop  offset="0.506" style="stop-color:#AA4494"/>
			<stop  offset="0.5734" style="stop-color:#B74292"/>
			<stop  offset="1" style="stop-color:#E50012"/>
		</linearGradient>
		<polygon class="st1" points="18.2,17.5 9.4,29.6 18.2,25 31.4,35.6 		"/>
		<linearGradient id="SVGID_2_" gradientUnits="userSpaceOnUse" x1="28.1706" y1="14.923" x2="18.9229" y2="8.1414">
			<stop  offset="0.1041" style="stop-color:#52C2F0"/>
			<stop  offset="0.4939" style="stop-color:#92D1A8"/>
			<stop  offset="0.8362" style="stop-color:#C5DC6E"/>
			<stop  offset="1" style="stop-color:#D9E158"/>
		</linearGradient>
		<polygon class="st2" points="24.2,10.3 19.8,1.3 19.8,16.4 34.1,11.7 		"/>
		<linearGradient id="SVGID_3_" gradientUnits="userSpaceOnUse" x1="26.9485" y1="12.3908" x2="26.9485" y2="29.1981">
			<stop  offset="0" style="stop-color:#52C2F0"/>
			<stop  offset="0.5" style="stop-color:#5A6BB1"/>
			<stop  offset="1" style="stop-color:#7B559F"/>
		</linearGradient>
		<polygon class="st3" points="34.1,11.7 19.8,16.4 30.2,30.6 27,18.7 		"/>
		<linearGradient id="SVGID_4_" gradientUnits="userSpaceOnUse" x1="7.9021" y1="22.7718" x2="11.4783" y2="14.14">
			<stop  offset="0" style="stop-color:#DE3D8E"/>
			<stop  offset="0.371" style="stop-color:#E52380"/>
			<stop  offset="0.7343" style="stop-color:#F07637"/>
			<stop  offset="1" style="stop-color:#F8B600"/>
		</linearGradient>
		<polygon class="st4" points="3.9,12.8 11.1,19.8 9.4,29.6 18.2,17.5 		"/>
		<linearGradient id="SVGID_5_" gradientUnits="userSpaceOnUse" x1="6.118" y1="18.4137" x2="19.2417" y2="5.085">
			<stop  offset="0" style="stop-color:#E95513"/>
			<stop  offset="0.3407" style="stop-color:#F5A823"/>
			<stop  offset="0.5" style="stop-color:#FBD12B"/>
			<stop  offset="1" style="stop-color:#8DC21F"/>
		</linearGradient>
		<polygon class="st5" points="13.7,9.8 4.6,11.1 17.8,15.4 17.8,15.4 17.8,15.4 17.8,1.5 		"/>
		<linearGradient id="SVGID_6_" gradientUnits="userSpaceOnUse" x1="21.8157" y1="34.5521" x2="-0.3315" y2="22.292">
			<stop  offset="2.776170e-02" style="stop-color:#674B9B"/>
			<stop  offset="9.451672e-02" style="stop-color:#774999"/>
			<stop  offset="0.2621" style="stop-color:#9A4595"/>
			<stop  offset="0.3997" style="stop-color:#AF4393"/>
			<stop  offset="0.4892" style="stop-color:#B74292"/>
			<stop  offset="1" style="stop-color:#E50012"/>
		</linearGradient>
		<path class="st6" d="M18.7,34.8c2.3,0,4.4-0.4,6.4-1.2c-2.2,1.1-4.7,1.7-7.4,1.7c-9.5,0-17.2-7.7-17.2-17.2c0-0.2,0-0.5,0-0.7
			C1,27,8.9,34.8,18.7,34.8z"/>
	</g>
	<g>
		<path class="st7" d="M55.7,18.6c-0.2-0.1-0.5-0.1-0.8-0.2c-0.2,0-0.5-0.1-0.9-0.2c-1.4-0.3-2.4-0.6-2.9-0.8
			c-1.2-0.6-1.2-1.3-1.2-1.5c0-0.6,0.3-1.1,0.8-1.5c0.6-0.4,1.3-0.7,2.2-0.7c0.9,0,1.6,0.2,2.1,0.6c0.6,0.4,1,1.1,1.2,2l0.1,0.4h3.7
			l-0.1-0.6c-0.3-1.8-1.1-3.1-2.4-4.1c-1.2-0.9-2.7-1.4-4.5-1.4c-1.9,0-3.5,0.5-4.8,1.4c-1.4,1-2.1,2.3-2.1,3.9
			c0,0.7,0.2,1.4,0.5,2.1c0.4,0.6,1,1.2,1.7,1.7c0.5,0.3,1.1,0.6,1.9,0.8c0.4,0.1,1.1,0.3,2,0.5c0.4,0.1,0.8,0.2,0.9,0.2
			c0.3,0.1,0.6,0.2,0.9,0.3c0.8,0.2,1.4,0.5,1.9,0.9c0.5,0.4,0.7,0.9,0.7,1.4c0,0.7-0.3,1.3-1,1.8c-0.7,0.5-1.6,0.8-2.7,0.8
			c-1,0-1.7-0.3-2.4-0.8c-0.7-0.5-1.1-1.2-1.3-2.2l-0.1-0.4h-3.9l0.1,0.6c0.2,1.9,1.1,3.4,2.6,4.4c1.3,1,3.1,1.5,5.1,1.5
			c2,0,3.7-0.5,5.1-1.6c1.5-1.1,2.3-2.5,2.3-4.1c0-1.3-0.5-2.4-1.4-3.3C58.1,19.6,57,19,55.7,18.6z"/>
		<polygon class="st7" points="76.1,10.9 62,10.9 62,14 67.3,14 67.3,29.2 70.9,29.2 70.9,14 76.1,14 		"/>
		<path class="st7" d="M83.3,10.6l-7.7,18.6h3.6l2.3-5.6h4.8l-1.7-2.4l-1.9,1c-0.1,0-0.1,0-0.2,0c0,0-0.1-0.1-0.1-0.2l0.3-2.1
			l-1.5-1.5c0,0-0.1-0.1,0-0.2c0,0,0-0.1,0.1-0.1c0,0,0,0,0.1,0l2.1-0.3l0.9-1.9c0,0,0,0,0-0.1c0,0,0.1,0,0.1,0c0.1,0,0.1,0,0.1,0.1
			l1,1.9l2.1,0.3c0.1,0,0.1,0,0.1,0.1c0,0.1,0,0.1,0,0.2L86.3,20l2.2,6.1l1.3,3.1h3.6l-7.6-18.6H83.3z"/>
		<path class="st7" d="M105.6,22.6c1.2-0.4,2.2-1,3-1.9c1-1.1,1.4-2.3,1.4-3.8c0-1.1-0.3-2.2-0.8-3c-0.5-0.9-1.3-1.6-2.3-2.1
			c-0.7-0.4-1.6-0.7-2.5-0.8c-0.6-0.1-1.4-0.1-2.5-0.1l-5.2,0v18.3h3.4v-6.6h1.5l4.9,6.6h4.1L105.6,22.6z M103.3,19.7
			c-0.4,0-1.1,0-2,0H100v-5.6h2l0.5,0c0.7,0,1.3,0,1.6,0c0.5,0.1,1,0.2,1.4,0.5c0.4,0.3,0.7,0.6,1,1c0.2,0.4,0.4,0.8,0.4,1.2
			c0,0.5-0.2,1-0.5,1.4c-0.3,0.5-0.8,0.8-1.4,1.1C104.6,19.5,104,19.6,103.3,19.7z"/>
		<polygon class="st7" points="149.3,10.8 149.3,12.1 155.8,12.1 155.8,29.2 157.1,29.2 157.1,12.1 163.6,12.1 163.6,10.8 		"/>
		<polygon class="st7" points="129,29.2 130.8,29.2 120.9,19.3 129.4,10.8 127.6,10.8 117.2,21.2 117.2,10.8 115.9,10.8 115.9,29.2 
			117.2,29.2 117.2,23 120,20.2 		"/>
		<g>
			<path class="st7" d="M146.7,23.8c0-3.8-6.6-4.9-6.9-4.9c-5.2-0.8-5.2-3.1-5.2-3.1l0-0.1l0-0.1c0,0-0.3-1.4,0.6-2.5
				c0.8-1,2.2-1.4,4.3-1.4c2.3,0,3.9,0.5,4.8,1.6c0.8,0.9,0.8,2,0.8,2.4h1.3c0-0.6-0.1-2-1.1-3.2c-1.2-1.4-3.1-2-5.8-2
				c-2.5,0-4.3,0.7-5.3,1.9c-1.1,1.4-0.9,3.2-0.8,3.6c0,0.6,0.5,3.5,6.3,4.4c1.6,0.2,5.8,1.4,5.8,3.7c0,0.1,0.2,1.4-0.8,2.6
				c-1,1.1-2.7,1.6-5.1,1.6c-0.2,0-5.5-0.1-5.6-4.3h-1.3c0.1,4.4,4.5,5.6,6.9,5.6c2.8,0,4.8-0.7,6-2.1
				C147,25.7,146.7,23.8,146.7,23.8z"/>
		</g>
	</g>
</g>
</svg>
