<?xml version="1.0" encoding="utf-8"?>
<!-- Generator: Adobe Illustrator 22.1.0, SVG Export Plug-In . SVG Version: 6.00 Build 0)  -->
<svg version="1.1" id="Layer_1" xmlns="http://www.w3.org/2000/svg" xmlns:xlink="http://www.w3.org/1999/xlink" x="0px" y="0px"
	 viewBox="0 0 151 33" style="enable-background:new 0 0 151 33;" xml:space="preserve">
<style type="text/css">
	.st0{fill:#fff;}
</style>
<g>
	<g>
		<polygon class="st0" points="18.2,15.6 18.2,15.6 18.2,15.6 18.2,15.6 18.2,15.6 		"/>
		<polygon class="st0" points="18.2,15.6 18.2,15.6 18.2,15.6 		"/>
		<polygon class="st0" points="18.2,15.6 18.2,15.6 18.2,15.6 		"/>
		<polygon class="st0" points="18.2,15.6 18.2,15.6 18.2,15.6 		"/>
		<rect x="18.2" y="15.6" transform="matrix(0.8222 -0.5692 0.5692 0.8222 -5.6285 13.1262)" class="st0" width="0" height="0"/>
		<polygon class="st0" points="18.2,15.6 18.2,15.6 18.2,15.6 		"/>
		<polygon class="st0" points="16.9,15.8 8.5,27.3 16.9,23 29.3,33 		"/>
		<polygon class="st0" points="22.5,9 18.3,0.5 18.3,14.8 31.9,10.4 		"/>
		<polygon class="st0" points="31.9,10.4 18.3,14.8 28.1,28.3 25.1,17 		"/>
		<polygon class="st0" points="3.3,11.4 10.1,18 8.5,27.3 16.9,15.8 		"/>
		<polygon class="st0" points="12.6,8.6 3.9,9.8 16.5,13.9 16.5,13.9 16.5,13.9 16.5,0.7 		"/>
		<path class="st0" d="M17.3,32.2c2.1,0,4.2-0.4,6.1-1.1c-2.1,1-4.5,1.6-7,1.6c-9,0-16.2-7.3-16.2-16.2c0-0.2,0-0.5,0-0.7
			C0.5,24.9,8.1,32.2,17.3,32.2z"/>
	</g>
	<g>
		<path class="st0" d="M52.2,17c-0.2-0.1-0.5-0.1-0.8-0.2c-0.2,0-0.4-0.1-0.8-0.2c-1.3-0.3-2.3-0.5-2.8-0.8
			c-1.2-0.6-1.2-1.2-1.2-1.4c0-0.6,0.2-1,0.7-1.4c0.5-0.4,1.2-0.6,2-0.6c0.8,0,1.5,0.2,2,0.6c0.5,0.4,0.9,1,1.2,1.8l0.1,0.3h3.5
			l-0.1-0.5c-0.2-1.6-1-3-2.2-3.9c-1.1-0.9-2.6-1.3-4.3-1.3c-1.8,0-3.3,0.4-4.6,1.3c-1.3,0.9-2,2.2-2,3.7c0,0.7,0.2,1.3,0.5,2
			c0.4,0.6,0.9,1.1,1.6,1.6c0.5,0.3,1.1,0.6,1.8,0.8c0.4,0.1,1,0.3,1.8,0.4c0.4,0.1,0.7,0.1,0.9,0.2c0.3,0.1,0.6,0.2,0.9,0.3
			c0.7,0.2,1.3,0.5,1.8,0.9c0.5,0.4,0.7,0.8,0.7,1.3c0,0.7-0.3,1.2-1,1.7c-0.7,0.5-1.5,0.7-2.5,0.7c-0.9,0-1.6-0.2-2.3-0.7
			c-0.6-0.5-1-1.2-1.2-2L46,21h-3.6l0.1,0.5c0.2,1.8,1,3.2,2.4,4.2c1.3,0.9,2.9,1.4,4.8,1.4c1.8,0,3.5-0.5,4.8-1.5
			c1.4-1,2.2-2.4,2.2-3.9c0-1.2-0.4-2.2-1.3-3.1C54.5,17.9,53.5,17.3,52.2,17z"/>
		<polygon class="st0" points="71.5,9.7 58.2,9.7 58.2,12.6 63.1,12.6 63.1,26.9 66.5,26.9 66.5,12.6 71.5,12.6 		"/>
		<path class="st0" d="M78.2,9.5L71,26.9h3.4l1.8-4.5h5.4l-2.2-3l-1.7,1c0,0-0.1,0-0.2,0c0,0-0.1-0.1-0.1-0.1l0.3-2l-1.4-1.4
			c0,0-0.1-0.1,0-0.2c0,0,0-0.1,0.1-0.1c0,0,0,0,0.1,0l2-0.3l0.9-1.8c0,0,0,0,0-0.1c0,0,0.1,0,0.1,0c0.1,0,0.1,0,0.1,0.1l0.9,1.8
			l2,0.3c0.1,0,0.1,0,0.1,0.1c0,0.1,0,0.1,0,0.2L81,18.3l2.1,5.7l1.2,3h3.4L80.6,9.5H78.2z"/>
		<path class="st0" d="M99.2,20.7c1.2-0.3,2.1-0.9,2.8-1.8c0.9-1,1.4-2.2,1.4-3.5c0-1.1-0.3-2-0.8-2.9c-0.5-0.8-1.2-1.5-2.1-2
			c-0.7-0.4-1.5-0.6-2.4-0.7c-0.5-0.1-1.3-0.1-2.4-0.1l-4.9,0v17.2H94v-6.2h1.5l4.6,6.2h3.9L99.2,20.7z M97.1,18c-0.4,0-1,0-1.9,0
			H94v-5.2h1.9l0.5,0c0.7,0,1.2,0,1.5,0c0.5,0.1,0.9,0.2,1.3,0.5c0.4,0.3,0.7,0.6,0.9,0.9c0.2,0.4,0.3,0.7,0.3,1.1
			c0,0.5-0.1,1-0.4,1.4c-0.3,0.4-0.8,0.8-1.3,1C98.3,17.8,97.8,17.9,97.1,18z"/>
		<g>
			<path class="st0" d="M118.8,11.3c-1-0.9-2.3-1.5-3.7-1.7h-6.3v17.3h1.3V21h4.3c1.7,0,3.2-0.6,4.4-1.7c1.2-1.1,1.8-2.5,1.8-4
				C120.7,13.8,120,12.4,118.8,11.3z M119.3,15.4c0,1.2-0.5,2.3-1.4,3.2c-1,0.9-2.1,1.3-3.5,1.3h-4.3v-8.9h4.3
				c1.4,0,2.5,0.4,3.5,1.3C118.9,13.1,119.3,14.1,119.3,15.4z"/>
			<path class="st0" d="M121.2,26.8l-0.1,0.2h1.4l2.6-6.5h6.3l2.6,6.5h1.4l-7.1-17.9L121.2,26.8z M130.9,19.2h-5.3l2.7-6.7
				L130.9,19.2z"/>
			<polygon class="st0" points="148.7,9.7 143,18.6 137.3,9.7 135.8,9.7 142.3,20 142.3,26.9 143.6,26.9 143.6,20 150.2,9.7 			"/>
		</g>
	</g>
</g>
</svg>
